<?xml version="1.0" encoding="UTF-8" standalone="no"?>
<!-- Created with Inkscape (http://www.inkscape.org/) -->
<svg id="svg5809" xmlns:rdf="http://www.w3.org/1999/02/22-rdf-syntax-ns#" xmlns="http://www.w3.org/2000/svg" height="22.524mm" width="33mm" version="1.1" xmlns:cc="http://creativecommons.org/ns#" xmlns:dc="http://purl.org/dc/elements/1.1/" viewBox="0 0 116.92969 79.808598">
 <metadata id="metadata5814">
  <rdf:RDF>
   <cc:Work rdf:about="">
    <dc:format>image/svg+xml</dc:format>
    <dc:type rdf:resource="http://purl.org/dc/dcmitype/StillImage"/>
    <dc:title/>
   </cc:Work>
  </rdf:RDF>
 </metadata>
 <g id="layer1" transform="translate(715.61 -335.31)">
  <path id="rect7082" style="color-rendering:auto;text-decoration-color:#000000;color:#000000;isolation:auto;mix-blend-mode:normal;shape-rendering:auto;solid-color:#000000;block-progression:tb;text-decoration-line:none;text-decoration-style:solid;image-rendering:auto;white-space:normal;text-indent:0;text-transform:none" d="m-669.48 335.31c-2.5172 0-4.1502 1.9351-5.0957 3.9492-0.74381 1.5845-1.1151 3.5151-1.2773 5.5742h-27.078c-6.9818 0-12.678 5.6959-12.678 12.678v44.93c0 6.9818 5.696 12.678 12.678 12.678h91.574c6.9818 0 12.678-5.6959 12.678-12.678v-44.93c0-6.9818-5.696-12.678-12.678-12.678h-21.623c-0.16226-2.0591-0.53353-3.9897-1.2773-5.5742-0.9455-2.0141-2.5766-3.9492-5.0938-3.9492h-30.129zm0 4.8164h30.129c-0.23542 0 0.19097 0.0221 0.73438 1.1797 0.5434 1.1576 0.97656 3.0584 0.97656 5.1855 0 0.2156-0.007 0.4333-0.0156 0.65235l-0.0996 2.5039h26.398c4.3973 0 7.8613 3.466 7.8613 7.8633v44.93c0 4.3973-3.464 7.8633-7.8613 7.8633h-91.574c-4.3973 0-7.8633-3.466-7.8633-7.8633v-44.93c0-4.3973 3.466-7.8633 7.8633-7.8633h31.85l-0.0957-2.5c-0.009-0.22296-0.0137-0.44192-0.0137-0.65625 0-2.1271 0.4312-4.028 0.97461-5.1855 0.5434-1.1576 0.97175-1.1797 0.73632-1.1797zm41.564 10.311c-2.0205 0-3.2048 1.5085-3.8262 2.832-0.62135 1.3236-0.90625 2.8539-0.90625 4.5293s0.2849 3.2057 0.90625 4.5293c0.62134 1.3236 1.8057 2.832 3.8262 2.832h17.008c2.0204 0 3.2048-1.5085 3.8262-2.832 0.62134-1.3236 0.9082-2.8539 0.9082-4.5293s-0.28686-3.2057-0.9082-4.5293-1.8057-2.832-3.8262-2.832h-17.008zm0.56054 4.8164h15.887c0.0206 0.0352-0.006-0.008 0.0274 0.0625 0.21924 0.46703 0.45117 1.4137 0.45117 2.4824s-0.23193 2.0154-0.45117 2.4824c-0.0331 0.0706-0.007 0.0273-0.0274 0.0625h-15.887c-0.0205-0.0352 0.006 0.008-0.0273-0.0625-0.21925-0.46704-0.45117-1.4137-0.45117-2.4824s0.23192-2.0154 0.45117-2.4824c0.0331-0.0706 0.007-0.0273 0.0273-0.0625zm-28.719 5.3008c-13.526 0-24.559 11.031-24.559 24.557s11.033 24.559 24.559 24.559 24.557-11.033 24.557-24.559-11.031-24.557-24.557-24.557zm0 6.752c9.8767 0 17.805 7.928 17.805 17.805 0 9.8767-7.928 17.807-17.805 17.807-9.8766 0-17.807-7.93-17.807-17.807 0-9.8767 7.93-17.805 17.807-17.805zm0.0254 3.6211c-7.8825 0-14.336 6.4534-14.336 14.336 0 7.8825 6.4534 14.336 14.336 14.336s14.336-6.4534 14.336-14.336c0-7.8825-6.4534-14.336-14.336-14.336zm0 6.752c4.2341 0 7.584 3.35 7.584 7.584s-3.35 7.582-7.584 7.582-7.584-3.3479-7.584-7.582 3.3499-7.584 7.584-7.584z"/>
 </g>
</svg>
