<?xml version="1.0" encoding="UTF-8" standalone="no"?>
<!-- Created with Inkscape (http://www.inkscape.org/) -->
<svg id="svg4625" xmlns:rdf="http://www.w3.org/1999/02/22-rdf-syntax-ns#" xmlns="http://www.w3.org/2000/svg" height="29.874mm" width="55.039mm" version="1.1" xmlns:cc="http://creativecommons.org/ns#" xmlns:dc="http://purl.org/dc/elements/1.1/" viewBox="0 0 195.02045 105.85334">
 <metadata id="metadata4630">
  <rdf:RDF>
   <cc:Work rdf:about="">
    <dc:format>image/svg+xml</dc:format>
    <dc:type rdf:resource="http://purl.org/dc/dcmitype/StillImage"/>
    <dc:title/>
   </cc:Work>
  </rdf:RDF>
 </metadata>
 <g id="layer1" transform="translate(-205.35 -130.86)">
  <path id="path7564" style="color-rendering:auto;text-decoration-color:#000000;color:#000000;isolation:auto;mix-blend-mode:normal;shape-rendering:auto;solid-color:#000000;block-progression:tb;text-decoration-line:none;text-decoration-style:solid;image-rendering:auto;white-space:normal;text-indent:0;text-transform:none" d="m323.65 130.86s0.13452 4.7476 0.13452 5.9398c-0.12258 8.2234-6.9331 7.3349-8.0003 11.944-0.57813 2.4965 0.27375 7.0828 1.6358 7.6932 0 0-41.029 75.373-32.024 80.19 5.8131 3.1094 34.726-78.212 34.545-79.292 7.158-1.8358 11.757-7.453 10.634-13.573-1.0406-4.725-3.4839-9.2636-6.9247-12.902zm24.885 6.0673a2.9485 3.1028 0 0 0 -2.0163 5.4614l46.433 42.906-46.433 42.906a2.9485 3.1028 0 1 0 3.8908 4.6624l48.956-45.237a2.9485 3.1028 0 0 0 0 -4.6625l-48.956-45.237a2.9485 3.1028 0 0 0 -1.8744 -0.79891zm-91.148 0a2.9485 3.1028 0 0 0 -2.0803 0.7984l-48.956 45.237a2.9485 3.1028 0 0 0 0 4.6624l48.956 45.237a2.9485 3.1028 0 1 0 3.8908 -4.6624l-46.433-42.906 46.433-42.906a2.9485 3.1028 0 0 0 -1.8104 -5.4608z" fill-rule="evenodd"/>
 </g>
</svg>
