<?xml version="1.0" encoding="UTF-8" standalone="no"?>
<!-- Created with Inkscape (http://www.inkscape.org/) -->

<svg
   xmlns:dc="http://purl.org/dc/elements/1.1/"
   xmlns:cc="http://creativecommons.org/ns#"
   xmlns:rdf="http://www.w3.org/1999/02/22-rdf-syntax-ns#"
   xmlns:svg="http://www.w3.org/2000/svg"
   xmlns="http://www.w3.org/2000/svg"
   xmlns:sodipodi="http://sodipodi.sourceforge.net/DTD/sodipodi-0.dtd"
   xmlns:inkscape="http://www.inkscape.org/namespaces/inkscape"
   id="svg6393"
   height="50mm"
   width="50mm"
   version="1.1"
   viewBox="0 0 177.16681 177.16565"
   inkscape:version="0.91 r13725"
   sodipodi:docname="lights.svg">
  <defs
     id="defs8" />
  <sodipodi:namedview
     pagecolor="#ffffff"
     bordercolor="#666666"
     borderopacity="1"
     objecttolerance="10"
     gridtolerance="10"
     guidetolerance="10"
     inkscape:pageopacity="0"
     inkscape:pageshadow="2"
     inkscape:window-width="1440"
     inkscape:window-height="780"
     id="namedview6"
     showgrid="false"
     inkscape:zoom="1.4957208"
     inkscape:cx="85.668427"
     inkscape:cy="132.37765"
     inkscape:window-x="0"
     inkscape:window-y="0"
     inkscape:window-maximized="0"
     inkscape:current-layer="svg6393" />
  <metadata
     id="metadata6398">
    <rdf:RDF>
      <cc:Work
         rdf:about="">
        <dc:format>image/svg+xml</dc:format>
        <dc:type
           rdf:resource="http://purl.org/dc/dcmitype/StillImage" />
        <dc:title></dc:title>
      </cc:Work>
    </rdf:RDF>
  </metadata>
  <g
     id="layer1"
     transform="translate(471.44169,-163.7384)">
    <path
       id="path7514"
       style="color:#000000;text-indent:0;text-decoration:none;text-decoration-line:none;text-decoration-style:solid;text-decoration-color:#000000;text-transform:none;block-progression:tb;white-space:normal;isolation:auto;mix-blend-mode:normal;solid-color:#000000;fill-rule:evenodd;color-rendering:auto;image-rendering:auto;shape-rendering:auto"
       d="m -317.9,173.43 a 2.7503,2.7503 0 0 0 -2.082,0.85352 l -70.889,74.461 -41.447,-68.842 a 2.7503,2.7503 0 0 0 -5.0938,1.1504 l -12.953,132.16 0.0195,-0.1543 c -0.0231,0.14837 0.0321,0.28926 0.0176,0.4375 -0.0414,0.31083 -0.14844,0.60081 -0.14844,0.92383 0,0.5384 0.13573,1.0366 0.24805,1.541 0.0215,0.10366 0.0236,0.20608 0.0488,0.30859 0.0545,0.2036 0.0909,0.41153 0.16211,0.60938 0.23496,0.86536 0.59125,1.688 1.1113,2.4199 1.9546,2.7507 5.1573,4.5716 9.1406,6.125 0.2907,0.11337 0.6611,0.19481 0.96094,0.30469 0.62763,0.23072 1.314,0.41241 1.9688,0.62304 0.36868,0.11924 0.73541,0.23896 1.1152,0.35352 0.26839,0.0852 0.47566,0.19215 0.75,0.27539 0.17566,0.0533 0.39223,0.0901 0.57031,0.14258 0.84148,0.23381 1.689,0.45937 2.5762,0.67187 0.1773,0.0427 0.33156,0.10469 0.50977,0.14649 0.25377,0.0595 0.52005,0.0928 0.77539,0.15039 6.8125,1.6282 14.94,2.6608 23.859,2.9609 0.67803,0.0239 1.8132,0.15053 2.3848,0.15821 0.45004,0.0179 1.0618,-0.0512 1.5274,-0.0391 0.44842,0.004 0.86688,0.041 1.3184,0.041 3.3322,0 6.5748,-0.11186 9.7148,-0.31055 4.8385,-0.29762 9.6745,-0.79936 14.516,-1.6738 1.3174,-0.22494 2.7012,-0.40226 3.9512,-0.67188 5.1138,-1.103 9.6214,-2.5714 13.215,-4.5781 0.11534,-0.0644 0.18703,-0.16082 0.30078,-0.22657 0.1452,-0.0808 0.33616,-0.13233 0.47852,-0.21484 2.1571,-1.2502 3.9937,-2.811 5.3184,-4.6504 0.12644,-0.18102 0.24107,-0.36169 0.35351,-0.54883 0.76722,-1.2069 1.372,-2.498 1.5547,-3.9746 a 2.7503,2.7503 0 0 0 -0.0156,-0.7793 l 36.727,-136.69 a 2.7503,2.7503 0 0 0 -2.5645,-3.4629 z m -5.5508,12.471 -32.479,120.88 -31.998,-53.146 64.477,-67.729 z m -109.3,3.9492 37.945,63.023 -49.186,51.666 11.24,-114.69 z m 40.887,67.91 27.295,45.332 c -1.1074,-0.41541 -2.1319,-0.86135 -3.3613,-1.2344 -8.7465,-2.6539 -20.517,-4.2305 -33.521,-4.2305 -12.326,0 -23.455,1.4519 -32.039,3.8594 l 41.627,-43.727 z m -9.5879,45.367 c 12.554,0 23.923,1.566 31.926,3.9941 4.0014,1.2141 7.157,2.6631 9.1133,4.0664 0.82641,0.59284 1.2862,1.1028 1.6719,1.584 l 0.52539,0.87304 c 0.0926,0.22921 0.23925,0.48286 0.25,0.66602 -0.21795,0.77957 -0.68944,1.5921 -1.4629,2.4062 -0.007,0.006 -0.0129,0.0132 -0.0195,0.0195 -0.48511,0.50759 -1.3093,1.0058 -2.0332,1.5078 -0.78987,0.48711 -1.5697,0.97418 -2.6191,1.4512 -0.082,0.0385 -0.17063,0.0751 -0.25391,0.11328 -1.5043,0.66861 -3.2276,1.3183 -5.1719,1.9082 -5.5972,1.6983 -12.901,2.9348 -21.045,3.5488 -5.6898,0.35605 -11.638,0.40057 -17.432,0.1289 -3.323,-0.1558 -6.5607,-0.44215 -9.709,-0.79687 -3.669,-0.44425 -7.4793,-1.0122 -11.145,-1.8164 -0.52884,-0.11416 -1.0935,-0.21549 -1.6035,-0.33593 -0.18384,-0.047 -0.37559,-0.0908 -0.55664,-0.13868 -1.2632,-0.31534 -2.4264,-0.67802 -3.5879,-1.043 -1.3532,-0.45007 -2.6765,-0.90775 -3.7891,-1.3965 -0.21203,-0.0897 -0.39429,-0.184 -0.59766,-0.27539 -1.3768,-0.63846 -2.5919,-1.2908 -3.4941,-1.9375 -0.0149,-0.0114 -0.0223,-0.0218 -0.0371,-0.0332 -0.96577,-0.69853 -1.5828,-1.3253 -1.9531,-1.8652 -0.3318,-0.55361 -0.43398,-1.039 -0.38282,-1.6211 0.0963,-0.35487 0.25201,-0.743 0.61133,-1.2812 0.38544,-0.49942 0.88687,-1.0426 1.7559,-1.666 1.9562,-1.4033 5.1119,-2.8523 9.1133,-4.0664 8.0028,-2.4282 19.372,-3.9941 31.926,-3.9941 z"
       inkscape:connector-curvature="0" />
  </g>
</svg>
